<?xml version="1.0" encoding="UTF-8"?>
<svg width="150px" height="419px" viewBox="0 0 150 419" version="1.1" xmlns="http://www.w3.org/2000/svg" xmlns:xlink="http://www.w3.org/1999/xlink">
    <title>logo</title>
    <desc></desc>
    <defs></defs>
    <g id="Page-1" stroke="none" stroke-width="1" fill="none" fill-rule="evenodd">
        <g id="logo">
            <path d="M15.24971,332.491 L19.53258,301.9039 L27.56105,301.9039 L0.01847768,138.5246 C0.01847768,138.5246 61.26428,84.4227 64.93091,17.4311 C63.9793,15.7218 63.44261,13.7645 63.44261,11.6809 C63.44261,5.8585 67.62789,1.0237 73.15264,0 L73.15264,137.4918 C66.70334,138.5291 61.77842,144.117 61.77842,150.855 C61.77842,158.3325 67.83986,164.394 75.31293,164.394 L75.41642,332.73425 L15.24971,332.491 Z" id="Fill-1" fill="#000000"></path>
            <path d="M75.41619,338.9913 L75.41619,418.9913 C75.41619,418.9913 16.74967,418.991025 0.01822834,418.9913 C-0.08365912,403.65769 -0.08376622,377.9913 9.416105,338.9913" id="Fill-2" fill="#000000"></path>
            <polygon id="Fill-3" fill="#000000" points="135.1757 332.49099 130.5595 301.9039 74.4166 301.9106 74.4257 332.73425"></polygon>
            <path d="M74.41661,338.99129 L74.41661,418.991289 C74.41661,418.991289 133.0831,418.991014 149.8146,418.991289 C149.9165,403.65768 149.9166,377.99129 140.4167,338.99129" id="Fill-4" fill="#000000"></path>
            <path d="M122.2718,301.9106 L149.8143,138.5314 C149.8143,138.5314 88.56853,84.4294 84.9019,17.4379 C85.85351,15.7286 86.3902,13.7712 86.3902,11.6876 C86.3902,5.8652 82.20492,1.0305 76.68017,0.0067 L76.68017,137.4986 C83.12947,138.5359 88.05439,144.1238 88.05439,150.8617 C88.05439,158.3393 81.99295,164.4007 74.51988,164.4007 L75.41619,301.9039 L122.2718,301.9106 Z" id="Fill-5" fill="#454545"></path>
        </g>
    </g>
</svg>
